<svg width="46" height="46" viewBox="0 0 46 46" fill="none" xmlns="http://www.w3.org/2000/svg">
<g clip-path="url(#clip0_28_272)">
<path d="M45.3034 22.6517C45.3034 10.1415 35.1619 0 22.6517 0C10.1415 0 0 10.1415 0 22.6517C0 33.9576 8.28335 43.3289 19.1124 45.0282V29.1994H13.361V22.6517H19.1124V17.6612C19.1124 11.9842 22.4942 8.84831 27.6682 8.84831C30.1458 8.84831 32.7388 9.29073 32.7388 9.29073V14.8652H29.8825C27.0688 14.8652 26.191 16.6114 26.191 18.4045V22.6517H32.4733L31.469 29.1994H26.191V45.0282C37.02 43.3289 45.3034 33.9576 45.3034 22.6517Z" fill="#1877F2"/>
<path d="M31.4694 29.1995L32.4737 22.6518H26.1914V18.4046C26.1914 16.6132 27.0691 14.8652 29.8829 14.8652H32.7391V9.2908C32.7391 9.2908 30.147 8.84839 27.6686 8.84839C22.4946 8.84839 19.1127 11.9842 19.1127 17.6613V22.6518H13.3613V29.1995H19.1127V45.0283C21.458 45.3952 23.8461 45.3952 26.1914 45.0283V29.1995H31.4694Z" fill="white"/>
</g>
<defs>
<clipPath id="clip0_28_272">
<rect width="45.3034" height="45.3034" fill="white"/>
</clipPath>
</defs>
</svg>
