<svg width="46" height="46" viewBox="0 0 46 46" fill="none" xmlns="http://www.w3.org/2000/svg">
<g clip-path="url(#clip0_28_268)">
<path fill-rule="evenodd" clip-rule="evenodd" d="M10.9037 0H35.7922C41.4296 0 45.9996 4.57001 45.9996 10.2074V35.0959C45.9996 40.7333 41.4296 45.3034 35.7922 45.3034H10.9037C5.2663 45.3034 0.696289 40.7333 0.696289 35.0959V10.2074C0.696289 4.57001 5.2663 0 10.9037 0ZM23.3527 37.0638C24.9666 36.3843 32.0453 31.953 35.2165 28.3004C37.3967 25.8937 38.4585 23.4586 38.4585 20.7546C38.4585 14.0016 31.6772 8.49438 23.3527 8.49438C15.014 8.49438 8.24685 14.0016 8.24685 20.7546C8.24685 26.8139 13.6125 31.8964 20.8752 32.8449C21.3707 32.9582 22.0361 33.1705 22.206 33.5953C22.3617 33.9775 22.305 34.5721 22.2484 34.9685C22.1352 35.6764 22.0644 36.1058 22.0361 36.2568L22.0278 36.3103C21.9621 36.7313 21.8086 37.714 23.3527 37.0638ZM28.9492 24.4213H33.1964C33.3521 24.4213 33.4795 24.2939 33.4795 24.1382V23.0622C33.4795 22.9065 33.3521 22.7791 33.1964 22.7791H30.3083V21.6607H33.1964C33.3521 21.6607 33.4795 21.5333 33.4795 21.3775V20.3016C33.4795 20.1458 33.3521 20.0184 33.1964 20.0184H30.3083V18.9H33.1964C33.3521 18.9 33.4795 18.7726 33.4795 18.6169V17.5409C33.4795 17.3852 33.3521 17.2578 33.1964 17.2578H28.9492C28.7935 17.2578 28.6661 17.3852 28.6661 17.5409V24.124V24.1382C28.6661 24.2939 28.7935 24.4213 28.9492 24.4213ZM13.263 24.4212H13.2489C13.0931 24.4212 12.9657 24.2938 12.9657 24.1381V24.1239V17.5408C12.9657 17.3851 13.0931 17.2577 13.2489 17.2577H14.3248C14.4806 17.2577 14.608 17.3851 14.608 17.5408V22.779H17.4961C17.6518 22.779 17.7792 22.9064 17.7792 23.0622V24.1381C17.7792 24.2938 17.6518 24.4212 17.4961 24.4212H13.263ZM18.9681 17.2578H20.0441C20.2005 17.2578 20.3272 17.3845 20.3272 17.5409V24.1382C20.3272 24.2946 20.2005 24.4213 20.0441 24.4213H18.9681C18.8118 24.4213 18.685 24.2946 18.685 24.1382V17.5409C18.685 17.3845 18.8118 17.2578 18.9681 17.2578ZM27.6333 17.5409V24.1382C27.6333 24.2939 27.5059 24.4213 27.336 24.4213H26.2742C26.2459 24.4213 26.2223 24.4166 26.2034 24.4072H26.1751V24.393H26.1609H26.1468L26.1326 24.3789C26.1232 24.3789 26.1185 24.3742 26.1185 24.3647H26.1043C26.076 24.3458 26.0524 24.3222 26.0335 24.2939L23.018 20.2166V24.1382C23.018 24.2939 22.8906 24.4213 22.7207 24.4213H21.6589C21.5032 24.4213 21.3616 24.2939 21.3616 24.1382V17.5409C21.3616 17.3852 21.5032 17.2578 21.6589 17.2578H22.7207H22.7349H22.749H22.7632H22.7773H22.7915H22.8057C22.8057 17.2672 22.8104 17.2719 22.8198 17.2719H22.834L22.8481 17.2861H22.8764V17.3002C22.8859 17.3002 22.8906 17.3049 22.8906 17.3144H22.9048L22.9189 17.3285L22.9472 17.3568C22.9567 17.3663 22.9614 17.3757 22.9614 17.3852L25.9769 21.4483V17.5409C25.9769 17.3852 26.1185 17.2578 26.2742 17.2578H27.336C27.5059 17.2578 27.6333 17.3852 27.6333 17.5409Z" fill="#06C755"/>
</g>
<defs>
<clipPath id="clip0_28_268">
<rect width="45.3034" height="45.3034" fill="white" transform="translate(0.696289)"/>
</clipPath>
</defs>
</svg>
